# xmcd
#
# Track frame offsets: 
#        150
#        23157
#        38299
#        57216
#        81281
#        103570
#        119085
#        139667
#        151740
#        180353
#        194127
#        208757
#        235969
#        254496
#        287148
#
# Disc length: 4172 seconds
#
# Revision: 0
# Processed by: cddbd v1.5.1PL0 Copyright (c) Steve Scherf et al.
# Submitted via: ExactAudioCopy v0.95b3
#
DISCID=d1104a0f
DTITLE=Various Artist - Atmospheric Brum and Bass
DYEAR=1900
DGENRE=
TTITLE0=Various Artists
TTITLE1=Various Artists
TTITLE2=Various Artists
TTITLE3=Various Artists
TTITLE4=Various Artists
TTITLE5=Various Artists
TTITLE6=Various Artists
TTITLE7=Various Artists
TTITLE8=Various Artists
TTITLE9=Various Artists
TTITLE10=Various Artists
TTITLE11=Various Artists
TTITLE12=Various Artists
TTITLE13=Various Artists
TTITLE14=Various Artists
EXTD=
EXTT0=
EXTT1=
EXTT2=
EXTT3=
EXTT4=
EXTT5=
EXTT6=
EXTT7=
EXTT8=
EXTT9=
EXTT10=
EXTT11=
EXTT12=
EXTT13=
EXTT14=
PLAYORDER=
